<svg width="75" height="75" viewBox="0 0 75 75" fill="none" xmlns="http://www.w3.org/2000/svg">
<circle cx="37.5" cy="37.5" r="37.5" fill="url(#paint0_linear_16_110)"/>
<path d="M30.336 39.3791H48.4374C49.3017 39.3791 50 38.6808 50 37.8165C50 36.9522 49.3017 36.254 48.4374 36.254H30.336L33.9201 32.6698C34.5305 32.0594 34.5305 31.0682 33.9201 30.4578C33.3097 29.8474 32.3185 29.8474 31.7081 30.4578L25.4578 36.7081C24.8474 37.3185 24.8474 38.3097 25.4578 38.9201L31.7081 45.1704C32.3185 45.7808 33.3097 45.7808 33.9201 45.1704C34.5305 44.56 34.5305 43.5688 33.9201 42.9584L30.336 39.3791Z" fill="white"/>
<defs>
<linearGradient id="paint0_linear_16_110" x1="-51" y1="38" x2="103" y2="38" gradientUnits="userSpaceOnUse">
<stop stop-color="#046F7D"/>
<stop offset="1" stop-color="#75CB79"/>
</linearGradient>
</defs>
</svg>
