<svg width="75" height="75" viewBox="0 0 75 75" fill="none" xmlns="http://www.w3.org/2000/svg">
<circle cx="37.5" cy="37.5" r="37.5" fill="url(#paint0_linear_16_111)"/>
<path d="M49.4768 38.9803C50.1744 38.2827 50.1744 37.1498 49.4768 36.4523L40.5477 27.5232C39.8502 26.8256 38.7173 26.8256 38.0197 27.5232C37.3221 28.2208 37.3221 29.3536 38.0197 30.0512L43.9073 35.9333H26.7858C25.798 35.9333 25 36.7313 25 37.7191C25 38.7068 25.798 39.5049 26.7858 39.5049H43.9017L38.0253 45.3869C37.3277 46.0845 37.3277 47.2174 38.0253 47.915C38.7229 48.6125 39.8557 48.6125 40.5533 47.915L49.4824 38.9859L49.4768 38.9803Z" fill="white"/>
<defs>
<linearGradient id="paint0_linear_16_111" x1="-51" y1="38" x2="103" y2="38" gradientUnits="userSpaceOnUse">
<stop stop-color="#046F7D"/>
<stop offset="1" stop-color="#75CB79"/>
</linearGradient>
</defs>
</svg>
