<svg width="75" height="54" viewBox="0 0 75 54" fill="none" xmlns="http://www.w3.org/2000/svg">
<path d="M0 20.0893C0 8.98996 8.98996 0 20.0893 0H21.4286C24.3917 0 26.7857 2.39397 26.7857 5.35714C26.7857 8.32031 24.3917 10.7143 21.4286 10.7143H20.0893C14.9163 10.7143 10.7143 14.9163 10.7143 20.0893V21.4286H21.4286C27.3382 21.4286 32.1429 26.2333 32.1429 32.1429V42.8571C32.1429 48.7667 27.3382 53.5714 21.4286 53.5714H10.7143C4.80469 53.5714 0 48.7667 0 42.8571V37.5V32.1429V20.0893ZM42.8571 20.0893C42.8571 8.98996 51.8471 0 62.9464 0H64.2857C67.2489 0 69.6429 2.39397 69.6429 5.35714C69.6429 8.32031 67.2489 10.7143 64.2857 10.7143H62.9464C57.7734 10.7143 53.5714 14.9163 53.5714 20.0893V21.4286H64.2857C70.1953 21.4286 75 26.2333 75 32.1429V42.8571C75 48.7667 70.1953 53.5714 64.2857 53.5714H53.5714C47.6618 53.5714 42.8571 48.7667 42.8571 42.8571V37.5V32.1429V20.0893Z" fill="url(#paint0_linear_22_5)"/>
<defs>
<linearGradient id="paint0_linear_22_5" x1="-2.67857" y1="26.7857" x2="75" y2="26.7857" gradientUnits="userSpaceOnUse">
<stop stop-color="#00A086"/>
<stop offset="1" stop-color="#F9F871"/>
</linearGradient>
</defs>
</svg>
