<svg width="75" height="54" viewBox="0 0 75 54" fill="none" xmlns="http://www.w3.org/2000/svg">
<path d="M75 33.4821C75 44.5815 66.01 53.5714 54.9107 53.5714H53.5714C50.6083 53.5714 48.2143 51.1775 48.2143 48.2143C48.2143 45.2511 50.6083 42.8571 53.5714 42.8571H54.9107C60.0837 42.8571 64.2857 38.6551 64.2857 33.4821V32.1429H53.5714C47.6618 32.1429 42.8571 27.3382 42.8571 21.4286V10.7143C42.8571 4.80469 47.6618 0 53.5714 0H64.2857C70.1953 0 75 4.80469 75 10.7143V16.0714V21.4286V33.4821ZM32.1429 33.4821C32.1429 44.5815 23.1529 53.5714 12.0536 53.5714H10.7143C7.75112 53.5714 5.35714 51.1775 5.35714 48.2143C5.35714 45.2511 7.75112 42.8571 10.7143 42.8571H12.0536C17.2266 42.8571 21.4286 38.6551 21.4286 33.4821V32.1429H10.7143C4.80469 32.1429 0 27.3382 0 21.4286V10.7143C0 4.80469 4.80469 0 10.7143 0H21.4286C27.3382 0 32.1429 4.80469 32.1429 10.7143V16.0714V21.4286V33.4821Z" fill="url(#paint0_linear_22_3)"/>
<defs>
<linearGradient id="paint0_linear_22_3" x1="-2.67857" y1="26.7857" x2="75" y2="26.7857" gradientUnits="userSpaceOnUse">
<stop stop-color="#00A086"/>
<stop offset="1" stop-color="#F9F871"/>
</linearGradient>
</defs>
</svg>
